PathFileType	4	(X/Y/Z)	F:/Ayumi_testdata/Ayumi_25_09_2024/new_static/static_00.trc																																																																																																																																																																																																				
DataRate	CameraRate	NumFrames	NumMarkers	Units	OrigDataRate	OrigDataStartFrame	OrigNumFrames																																																																																																																																																																																																
200	200	4	66	mm	200	259	295																																																																																																																																																																																																
Frame#	Time	LASI			RASI			RSACR			LSACR			USACR			LBAR			RBAR			RHEE			RMT1			RMT5			RMT2			LHEE			LMT1			LMT5			LMT2			LMMAL			LMFC			LLFC			LLMAL			LTIB4			LTIB2			LTIB3			LTIB1			RMMAL			RMFC			RLFC			RLMAL			RTIB1			RTIB2			RTIB3			RTHI1			RTHI4			RTHI3			RTHI2			LTHI1			LTHI4			LTHI3			LTHI2			FHD			LBHD			RBHD			C7			T10			CLAV			LSHO			RSHO			LRAD			LUL			LRFIN			RRAD			RUL			RUFIN			RLEP			RMEP			LLEP			LMEP			LDUPA			LMUPA			LUUPA			RDUPA			RUUPA			RMUPA			LKJC			RKJC			LAJC			RAJC		
		X1	Y1	Z1	X2	Y2	Z2	X3	Y3	Z3	X4	Y4	Z4	X5	Y5	Z5	X6	Y6	Z6	X7	Y7	Z7	X8	Y8	Z8	X9	Y9	Z9	X10	Y10	Z10	X11	Y11	Z11	X12	Y12	Z12	X13	Y13	Z13	X14	Y14	Z14	X15	Y15	Z15	X16	Y16	Z16	X17	Y17	Z17	X18	Y18	Z18	X19	Y19	Z19	X20	Y20	Z20	X21	Y21	Z21	X22	Y22	Z22	X23	Y23	Z23	X24	Y24	Z24	X25	Y25	Z25	X26	Y26	Z26	X27	Y27	Z27	X28	Y28	Z28	X29	Y29	Z29	X30	Y30	Z30	X31	Y31	Z31	X32	Y32	Z32	X33	Y33	Z33	X34	Y34	Z34	X35	Y35	Z35	X36	Y36	Z36	X37	Y37	Z37	X38	Y38	Z38	X39	Y39	Z39	X40	Y40	Z40	X41	Y41	Z41	X42	Y42	Z42	X43	Y43	Z43	X44	Y44	Z44	X45	Y45	Z45	X46	Y46	Z46	X47	Y47	Z47	X48	Y48	Z48	X49	Y49	Z49	X50	Y50	Z50	X51	Y51	Z51	X52	Y52	Z52	X53	Y53	Z53	X54	Y54	Z54	X55	Y55	Z55	X56	Y56	Z56	X57	Y57	Z57	X58	Y58	Z58	X59	Y59	Z59	X60	Y60	Z60	X61	Y61	Z61	X62	Y62	Z62	X63	Y63	Z63	X64	Y64	Z64	X65	Y65	Z65	X66	Y66	Z66
																																																																																																																																																																																																							
259	1.29	134.5722198	762.1847534	918.4164429	130.5540466	984.598877	918.9937744	310.2782288	912.2310791	949.9724731	309.3825073	852.3713989	953.2392578	298.6307678	882.2300415	966.3690186	1270.850342	-346.4750061	26.31347084	1226.416504	1876.926758	26.27432823	323.0803833	1019.649963	39.82965088	128.1789551	1043.332397	43.44629288	165.0724487	1113.68396	34.82081985	140.1763763	1079.963989	42.69812012	326.2704468	745.1588745	45.81801224	134.4000549	736.4481812	46.33079147	170.0262299	662.796936	33.37005615	143.1883698	698.0335083	45.91965103	276.7089233	778.6864624	72.9367218	233.1645508	829.0283813	456.9291077	219.4638519	721.4020996	454.0194092	278.8241272	700.9537964	69.13410187	290.3667603	691.4359131	209.5573578	314.0667419	691.3551636	270.8833008	263.565094	684.4830933	268.1385193	301.7689514	686.9849243	314.2705383	275.1939087	994.0654907	68.3589325	235.555481	935.3766479	446.5718689	220.9253998	1041.267456	461.3504333	284.690155	1068.613159	72.23681641	257.3342285	1082.705078	319.2524414	307.7830505	1077.166626	313.9596558	276.7844238	1081.311646	256.1260376	242.5583496	1060.013916	783.8405151	243.188446	1064.881836	635.0755615	191.9259033	1066.616577	637.0976563	219.711319	1070.191772	697.1808472	239.0179138	698.6411743	778.9277344	236.769577	694.9725952	646.5936279	186.1143341	693.3919067	637.5684814	200.6373749	689.1782227	701.3181763	131.2432098	775.4807739	1592.923218	242.0496826	786.2775269	1575.927002	253.808548	909.7079468	1571.227661	264.0115356	857.8868408	1391.452881	286.6730957	877.3306274	1007.453796	142.0916901	872.7181396	1328.431152	245.7586365	725.2094116	1381.045166	237.6867676	986.6549072	1397.163452	167.605072	222.7173615	1358.108032	208.2438354	222.3674774	1353.825806	154.3969879	130.7182159	1337.313843	243.0747375	1500.462524	1391.818481	289.9666748	1499.498291	1385.756348	237.5183105	1590.627441	1394.281616	294.9452515	1271.266235	1331.518433	256.8019104	1271.988525	1297.889893	223.0304108	454.2569275	1300.296021	182.1198425	466.8397827	1277.901855	239.0073853	506.2100525	1354.021606	203.0355072	536.6881104	1371.577026	239.8811798	585.4715576	1362.591919	267.7450256	1205.502686	1383.618774	258.3592529	1143.814331	1385.00708	217.546875	1212.104736	1386.579346	226.314209	775.21521	455.4742432	228.240448	988.3220215	453.9611511	277.7665405	739.8201294	71.03541565	279.9420166	1031.339355	70.29787445
260	1.295	134.5830994	762.1951294	918.4197388	130.5691833	984.6143188	918.9953003	310.2960815	912.2379761	949.9781494	309.401825	852.3790894	953.244751	298.6416931	882.2425537	966.3681641	1270.822998	-346.4961243	26.28832436	1226.400635	1876.936523	26.29443741	323.0859375	1019.635559	39.83310318	128.1875305	1043.329224	43.4499855	165.0802002	1113.686646	34.81995392	140.1763611	1079.973877	42.69849777	326.2715454	745.1536865	45.80912781	134.401123	736.4435425	46.33370209	170.0282135	662.7910156	33.37585449	143.1881866	698.0300903	45.91602325	276.7028809	778.671936	72.93840027	233.1584473	829.0333252	456.9353638	219.4616394	721.4092407	454.0201111	278.8211365	700.951416	69.11889648	290.3770447	691.43396	209.5558777	314.0663757	691.3648071	270.8866882	263.5755005	684.4727783	268.1418762	301.774353	686.9787598	314.2818604	275.1965332	994.0713501	68.35476685	235.5677643	935.3741455	446.5673218	220.9234924	1041.266724	461.3592529	284.6887512	1068.613281	72.22993469	257.3264771	1082.707397	319.2602844	307.7740173	1077.168213	313.9620972	276.7804565	1081.332153	256.1210938	242.5799255	1060.015625	783.8375854	243.2240448	1064.873901	635.0609131	191.9357605	1066.654297	637.098877	219.827179	1070.139648	697.0900879	239.0297699	698.6517334	778.9249268	236.7751923	694.986084	646.5913086	186.1197662	693.4118042	637.5719604	200.6503601	689.1982422	701.3054199	131.2558594	775.4794312	1592.919556	242.0478363	786.2666016	1575.932251	253.8005524	909.6920166	1571.220825	264.0173645	857.8839111	1391.456299	286.6880798	877.3343506	1007.455627	142.1054535	872.7070923	1328.443115	245.7662354	725.218689	1381.050415	237.6839905	986.6557007	1397.167847	167.6665192	222.7063293	1358.15625	208.2921753	222.3631134	1353.879883	154.4647522	130.7088623	1337.374268	243.112854	1500.458496	1391.824951	290.0150146	1499.492065	1385.759277	237.5669861	1590.626221	1394.291138	294.9700317	1271.244141	1331.532349	256.8215637	1271.990601	1297.894165	223.0557861	454.2461853	1300.318237	182.1461639	466.8322449	1277.927856	238.9781494	506.2569885	1353.949585	203.0619202	536.684021	1371.595093	239.8897247	585.4664307	1362.595215	267.7504578	1205.498901	1383.636963	258.375946	1143.807495	1385.019043	217.5726166	1212.106445	1386.588135	226.3100433	775.2213135	455.4777222	228.245636	988.3204346	453.9632874	277.7620239	739.8116455	71.02864838	279.942627	1031.342285	70.29235077
261	1.3	134.5986786	762.2072754	918.4287109	130.5811462	984.6176147	918.9954834	310.3096619	912.2426147	949.9729614	309.4245605	852.3759766	953.246582	298.6671753	882.239502	966.3710938	1270.821045	-346.4747314	26.2829361	1226.396362	1876.952637	26.29957008	323.0794373	1019.637024	39.83593369	128.1795502	1043.327393	43.45970154	165.0138397	1113.803955	34.98570251	140.1807861	1079.967529	42.69886398	326.2654419	745.1555786	45.80910873	134.4035187	736.4501953	46.33145523	170.0294952	662.8013916	33.37084579	143.1826019	698.0291748	45.92169189	276.7012939	778.6795044	72.94098663	233.1667938	829.0427246	456.9370422	219.4751282	721.4113159	454.0221863	278.8240051	700.9626465	69.12176514	290.3644104	691.4364624	209.5518036	314.078186	691.3531494	270.8647156	263.5798035	684.4802246	268.140625	301.7884827	686.9851074	314.2735291	275.202301	994.081665	68.35666656	235.5714722	935.3909302	446.5749207	220.9451447	1041.269287	461.3521118	284.6850281	1068.616821	72.237854	257.3511658	1082.703979	319.2529297	307.8010559	1077.170776	313.9612732	276.7869263	1081.334839	256.1138611	242.5790405	1060.025879	783.8540039	243.230896	1064.883667	635.0834351	191.9698029	1066.611328	637.1165161	219.8353577	1070.148804	697.086853	239.0462799	698.6716919	778.9366455	236.6660767	694.6147461	646.5562134	186.1267853	693.4168701	637.5726318	200.6568604	689.2216797	701.3105469	131.2504883	775.4696045	1592.91626	242.0448761	786.2598877	1575.935791	253.8095856	909.6903687	1571.236938	264.0160828	857.8798218	1391.46521	286.6985168	877.3441772	1007.461243	142.122406	872.6936035	1328.463135	245.7792358	725.2149658	1381.067017	237.6707306	986.6588135	1397.176025	167.716217	222.705719	1358.199219	208.3400879	222.3607635	1353.934204	154.5100098	130.6884613	1337.444458	243.1538391	1500.452881	1391.836426	290.0535889	1499.477417	1385.768555	237.6123505	1590.623657	1394.295166	294.9879761	1271.25	1331.539307	256.8378601	1271.988525	1297.901489	223.0720215	454.2523804	1300.344604	182.1563873	466.8288879	1277.958252	239.0185547	506.2595215	1353.963867	203.0647888	536.6801147	1371.627441	239.975235	585.4486694	1362.586182	267.7640076	1205.489502	1383.655396	258.3829041	1143.802856	1385.030273	217.5723267	1212.098145	1386.581177	226.3209534	775.2270508	455.4796143	228.2583008	988.3300781	453.963501	277.7626343	739.8210449	71.03137207	279.9436646	1031.349243	70.29725647
262	1.305	134.608551	762.2313232	918.4313354	130.5994263	984.6261597	918.9927979	310.3237915	912.2626953	949.9858398	309.4387512	852.3864136	953.2487183	298.6935425	882.2567749	966.3760986	1270.832642	-346.4636841	26.28985977	1226.396606	1876.934937	26.29031754	323.07724	1019.641785	39.83257675	128.1707764	1043.348145	43.44652176	165.0791016	1113.6875	34.8244133	140.1658325	1079.968506	42.69387817	326.2641296	745.1602173	45.80632019	134.4007263	736.4484863	46.33127594	170.0106354	662.7877808	33.38707733	143.1833496	698.0300903	45.92229462	276.7043457	778.6809692	72.94021606	233.1768646	829.0454712	456.954071	219.491684	721.4125977	454.0220947	278.8026123	700.9539795	69.12368011	290.390625	691.4486694	209.5497589	314.0959778	691.3616943	270.8656006	263.5827637	684.4835815	268.1428223	301.7819519	686.9667969	314.307373	275.1937256	994.0695801	68.35079193	235.5838013	935.387207	446.5765076	220.9542389	1041.282349	461.3547974	284.6867371	1068.61731	72.23822784	257.3559265	1082.717163	319.2644958	307.8094482	1077.169067	313.9526978	276.8039856	1081.341431	256.127594	242.6046753	1060.026001	783.8383789	243.2530212	1064.869385	635.0822754	191.977951	1066.632446	637.1077271	219.8489685	1070.158203	697.0809937	239.063385	698.68573	778.9346313	236.8024445	695.0352783	646.6066284	186.1432953	693.4251099	637.5725708	200.6717987	689.2322998	701.3187866	131.2523651	775.4608765	1592.914917	242.045105	786.2589722	1575.942993	253.799881	909.6827393	1571.234497	264.0141602	857.8865967	1391.463501	286.722168	877.3552856	1007.465454	142.1270294	872.6934204	1328.47644	245.7953339	725.2141113	1381.104614	237.6734467	986.6567383	1397.181396	167.7581177	222.6998291	1358.247925	208.3756866	222.3684845	1353.980225	154.5525513	130.6807098	1337.516357	243.1953888	1500.455688	1391.836548	290.0944824	1499.478394	1385.765747	237.6623077	1590.628784	1394.297852	295.0028992	1271.237183	1331.549927	256.853302	1271.983643	1297.909424	223.0986938	454.2475281	1300.367676	182.1804199	466.8190613	1277.98877	239.0449066	506.246521	1353.98584	203.077179	536.6816406	1371.636475	239.9468231	585.4581299	1362.659668	267.7776794	1205.498169	1383.66687	258.3927917	1143.797729	1385.043091	217.5861206	1212.085205	1386.584839	226.3342743	775.2290039	455.4880981	228.2690125	988.3347778	453.9656372	277.753479	739.8175049	71.0319519	279.9402466	1031.343506	70.29450989
